# xmcd
#
# Track frame offsets:
#	150
#	15122
#	33892
#	49521
#	67395
#	84657
#	99804
#	117982
#	135824
#	149598
#	167090
#	194390
#
# Disc length: 2622 seconds
#
# Revision: 0
# Processed by: cddbd v1.5.1PL2 Copyright (c) Steve Scherf et al.
# Submitted via: audiograbber 1.83.01
#
DISCID=960a3c0c
DTITLE=амдяеас йыстамтимидгс - текос йако  (BY STEVE)
DYEAR=2006
DGENRE=екаж каийа
TTITLE0=амдяеас йыстамтимидгс - пес то
TTITLE1=амдяеас йыстамтимидгс - ст' омеияо лоу
TTITLE2=амдяеас йыстамтимидгс - текос йако
TTITLE3=амдяеас йыстамтимидгс  - хекы ма соу пы
TTITLE4=амдяеас йыстамтимидгс and тфоукиа акенамдяатоу - ломо циа сема
TTITLE5=амдяеас йыстамтимидгс - ецыистяиа
TTITLE6=амдяеас йыстамтимидгс - тыяа пиа
TTITLE7=амдяеас йыстамтимидгс - енгцгсе лоу
TTITLE8=амдяеас йыстамтимидгс - лиа жояа
TTITLE9=амдяеас йыстамтимидгс - ема кепто сиыпг
TTITLE10=амдяеас йыстамтимидгс - ьгка
TTITLE11=амдяеас йыстамтимидгс - тЯАЦОЩДИ 12
EXTD=
EXTT0=
EXTT1=
EXTT2=
EXTT3=
EXTT4=
EXTT5=
EXTT6=
EXTT7=
EXTT8=
EXTT9=
EXTT10=
EXTT11=
PLAYORDER=
